<svg width="1440" height="563" viewBox="0 0 1440 563" fill="none" xmlns="http://www.w3.org/2000/svg">
<mask id="mask0_502_4" style="mask-type:alpha" maskUnits="userSpaceOnUse" x="0" y="-163" width="1440" height="726">
<rect y="-163" width="1440" height="726" fill="#D9D9D9"/>
</mask>
<g mask="url(#mask0_502_4)">
<path fill-rule="evenodd" clip-rule="evenodd" d="M-261.899 -248.885C-88.6508 -251.256 87.3479 -217.167 197.523 -129.032C309.618 -39.3603 358.731 87.9063 294.294 196.045C236.834 292.475 58.5589 312.877 -88.0693 350.249C-212.669 382.008 -340.918 423.091 -464.348 389.409C-594.822 353.804 -670.662 269.082 -711.757 180.052C-757.749 80.4146 -787.85 -31.0975 -697.995 -116.773C-602.296 -208.022 -430.189 -246.581 -261.899 -248.885Z" stroke="#F9F400"/>
<path fill-rule="evenodd" clip-rule="evenodd" d="M1708.9 -248.885C1535.65 -251.256 1359.65 -217.167 1249.48 -129.032C1137.38 -39.3603 1088.27 87.9063 1152.71 196.045C1210.17 292.475 1388.44 312.877 1535.07 350.249C1659.67 382.008 1787.92 423.091 1911.35 389.409C2041.82 353.804 2117.66 269.082 2158.76 180.052C2204.75 80.4146 2234.85 -31.0975 2145 -116.773C2049.3 -208.022 1877.19 -246.581 1708.9 -248.885Z" stroke="#F9F400"/>
<path fill-rule="evenodd" clip-rule="evenodd" d="M-42.7528 393.938C95.9293 367.206 244.98 329.108 315.085 254.918C382.33 183.756 269.313 92.5251 314.592 15.7732C346.984 -39.1338 470.626 -55.3947 526.561 -103.552C626.05 -189.208 829.577 -277.363 767.413 -374.085C710.428 -462.748 467.125 -450.32 303.577 -450.495C178.058 -450.629 72.2842 -403.992 -42.7528 -374.949C-115.707 -356.53 -170.063 -311.564 -249.655 -310.82C-450.35 -308.944 -654.775 -420.54 -833.375 -367.559C-975.41 -325.425 -972.471 -194.817 -948.355 -103.552C-925.136 -15.6826 -763.738 35.4604 -705.164 117.642C-634.171 217.246 -722.191 362.718 -571.107 425.736C-425 486.678 -213.65 426.879 -42.7528 393.938Z" stroke="#BC1328"/>
<path fill-rule="evenodd" clip-rule="evenodd" d="M1489.75 393.938C1351.07 367.206 1202.02 329.108 1131.91 254.918C1064.67 183.756 1177.69 92.5251 1132.41 15.7732C1100.02 -39.1338 976.374 -55.3947 920.439 -103.552C820.95 -189.208 617.423 -277.363 679.587 -374.085C736.572 -462.748 979.875 -450.32 1143.42 -450.495C1268.94 -450.629 1374.72 -403.992 1489.75 -374.949C1562.71 -356.53 1617.06 -311.564 1696.65 -310.82C1897.35 -308.944 2101.78 -420.54 2280.37 -367.559C2422.41 -325.425 2419.47 -194.817 2395.36 -103.552C2372.14 -15.6826 2210.74 35.4604 2152.16 117.642C2081.17 217.246 2169.19 362.718 2018.11 425.736C1872 486.678 1660.65 426.879 1489.75 393.938Z" stroke="#BC1328"/>
</g>
</svg>
