<svg width="1440" height="726" viewBox="0 0 1440 726" fill="none" xmlns="http://www.w3.org/2000/svg">
<mask id="mask0_502_68" style="mask-type:alpha" maskUnits="userSpaceOnUse" x="0" y="0" width="1440" height="726">
<rect width="1440" height="726" transform="matrix(1 0 0 -1 0 726)" fill="#D9D9D9"/>
</mask>
<g mask="url(#mask0_502_68)">
<path fill-rule="evenodd" clip-rule="evenodd" d="M710.348 1102.81C999.042 1106.76 1292.32 1049.9 1475.91 902.868C1662.7 753.279 1744.54 540.972 1637.17 360.574C1541.42 199.71 1244.35 165.676 1000.01 103.33C792.384 50.3514 578.676 -18.1848 372.997 38.0048C155.581 97.4008 29.203 238.734 -39.2758 387.254C-115.914 553.47 -166.073 739.494 -16.3431 882.419C143.125 1034.64 429.918 1098.97 710.348 1102.81Z" fill="#F8FAFC"/>
<path fill-rule="evenodd" clip-rule="evenodd" d="M602.431 930.851C825.936 933.915 1052.99 889.876 1195.12 776.018C1339.74 660.175 1403.1 495.765 1319.97 356.064C1245.84 231.491 1015.85 205.135 826.686 156.854C665.942 115.827 500.491 62.7529 341.256 106.266C172.933 152.263 75.0927 261.711 22.0768 376.725C-37.2562 505.443 -76.0888 649.501 39.8311 760.182C163.291 878.062 385.323 927.875 602.431 930.851Z" stroke="#F9F400"/>
<path fill-rule="evenodd" clip-rule="evenodd" d="M884.75 100.909C1063.68 135.397 1255.99 184.548 1346.44 280.264C1433.2 372.073 1287.39 489.774 1345.81 588.795C1387.6 659.633 1547.13 680.612 1619.3 742.742C1747.66 853.25 2010.26 966.983 1930.05 1091.77C1856.53 1206.16 1542.61 1190.12 1331.6 1190.35C1169.65 1190.52 1033.17 1130.35 884.75 1092.88C790.622 1069.12 720.491 1011.11 617.799 1010.15C358.855 1007.73 95.1005 1151.7 -135.334 1083.35C-318.592 1028.99 -314.8 860.487 -283.685 742.742C-253.727 629.378 -45.4867 563.396 30.0876 457.37C121.684 328.866 8.11879 141.187 203.052 59.8847C391.563 -18.7393 664.253 58.4101 884.75 100.909Z" stroke="#BC1328"/>
</g>
</svg>
