<svg width="1413" height="2342" viewBox="0 0 1413 2342" fill="none" xmlns="http://www.w3.org/2000/svg">
<mask id="mask0_460_289" style="mask-type:alpha" maskUnits="userSpaceOnUse" x="0" y="0" width="1413" height="2342">
<rect width="1412.44" height="2342" transform="matrix(1 0 0 -1 0 2342)" fill="#D9D9D9"/>
</mask>
<g mask="url(#mask0_460_289)">
<path fill-rule="evenodd" clip-rule="evenodd" d="M637.9 1095.81C921.068 1099.76 1208.73 1042.9 1388.81 895.868C1572.02 746.279 1652.3 533.972 1546.98 353.574C1453.06 192.71 1161.68 158.676 922.018 96.3304C718.365 43.3514 508.748 -25.1848 307.006 31.0048C93.7512 90.4008 -30.2072 231.734 -97.3753 380.254C-172.547 546.47 -221.745 732.494 -74.8815 875.419C81.5345 1027.64 362.837 1091.97 637.9 1095.81Z" fill="#F1F5F9"/>
<path fill-rule="evenodd" clip-rule="evenodd" d="M677.215 814.866C896.442 817.627 1119.15 777.935 1258.56 675.313C1400.41 570.903 1462.55 422.719 1381.02 296.806C1308.31 184.527 1082.72 160.772 897.178 117.256C739.511 80.2784 577.226 32.442 421.039 71.6608C255.939 113.118 159.971 211.765 107.97 315.427C49.7726 431.442 11.6833 561.282 125.384 661.04C246.481 767.286 464.263 812.184 677.215 814.866Z" stroke="#F9F400"/>
<path fill-rule="evenodd" clip-rule="evenodd" d="M808.963 93.9089C984.47 128.397 1173.1 177.548 1261.82 273.264C1346.92 365.073 1203.89 482.774 1261.19 581.795C1302.19 652.633 1458.66 673.612 1529.45 735.742C1655.35 846.25 1912.92 959.983 1834.25 1084.77C1762.14 1199.16 1454.23 1183.12 1247.26 1183.35C1088.41 1183.52 954.546 1123.35 808.963 1085.88C716.637 1062.12 647.848 1004.11 547.122 1003.15C293.135 1000.73 34.4287 1144.7 -191.595 1076.35C-371.345 1021.99 -367.626 853.487 -337.106 735.742C-307.722 622.378 -103.467 556.396 -29.3397 450.37C60.5039 321.866 -50.888 134.187 140.314 52.8847C325.216 -25.7393 592.687 51.4101 808.963 93.9089Z" stroke="#BC1328"/>
<path d="M3.92358 1920H1416.36V824H3.92358V1920Z" fill="#F1F5F9"/>
<path fill-rule="evenodd" clip-rule="evenodd" d="M657.814 2301.81C374.646 2305.76 86.9835 2248.9 -93.0939 2101.87C-276.309 1952.28 -356.582 1739.97 -251.262 1559.57C-157.345 1398.71 134.038 1364.68 373.696 1302.33C577.349 1249.35 786.966 1180.82 988.709 1237C1201.96 1296.4 1325.92 1437.73 1393.09 1586.25C1468.26 1752.47 1517.46 1938.49 1370.6 2081.42C1214.18 2233.64 932.877 2297.97 657.814 2301.81Z" fill="#F1F5F9"/>
<path fill-rule="evenodd" clip-rule="evenodd" d="M1059.54 1173.91C943.131 1208.4 818.023 1257.55 759.179 1353.26C702.736 1445.07 797.598 1562.77 759.592 1661.8C732.404 1732.63 628.623 1753.61 581.673 1815.74C498.165 1926.25 327.331 2039.98 379.51 2164.77C427.341 2279.16 631.562 2263.12 768.838 2263.35C874.195 2263.52 962.978 2203.35 1059.54 2165.88C1120.77 2142.12 1166.4 2084.11 1233.2 2083.15C1401.66 2080.73 1573.25 2224.7 1723.16 2156.35C1842.38 2101.99 1839.91 1933.49 1819.67 1815.74C1800.18 1702.38 1664.71 1636.4 1615.54 1530.37C1555.95 1401.87 1629.83 1214.19 1503.02 1132.88C1380.38 1054.26 1202.98 1131.41 1059.54 1173.91Z" stroke="#BC1328"/>
<path fill-rule="evenodd" clip-rule="evenodd" d="M785.245 2319.87C566.018 2322.63 343.311 2282.93 203.896 2180.31C62.0524 2075.9 -0.0945609 1927.72 81.4441 1801.81C154.154 1689.53 379.74 1665.77 565.282 1622.26C722.949 1585.28 885.234 1537.44 1041.42 1576.66C1206.52 1618.12 1302.49 1716.76 1354.49 1820.43C1412.69 1936.44 1450.78 2066.28 1337.08 2166.04C1215.98 2272.29 998.197 2317.18 785.245 2319.87Z" stroke="#F9F400"/>
</g>
</svg>
