<svg width="334" height="195" viewBox="0 0 334 195" fill="none" xmlns="http://www.w3.org/2000/svg">
<path fill-rule="evenodd" clip-rule="evenodd" d="M176.206 13.4098C202.667 19.1232 231.106 27.266 244.483 43.1227C257.313 58.3323 235.749 77.8313 244.389 94.2356C250.569 105.971 274.161 109.446 284.833 119.739C303.816 138.047 342.65 156.888 330.789 177.561C319.916 196.511 273.493 193.855 242.287 193.892C218.338 193.921 198.155 183.953 176.206 177.745C162.286 173.809 151.914 164.198 136.728 164.039C98.4343 163.638 59.4291 187.49 25.3515 176.166C-1.74944 167.161 -1.18873 139.245 3.41272 119.739C7.84302 100.959 38.6385 90.0278 49.8147 72.4631C63.3605 51.1744 46.5659 20.0825 75.3934 6.61352C103.271 -6.41175 143.598 6.36922 176.206 13.4098Z" stroke="#F9F400"/>
</svg>
