<svg width="1440" height="726" viewBox="0 0 1440 726" fill="none" xmlns="http://www.w3.org/2000/svg">
<mask id="mask0_460_303" style="mask-type:alpha" maskUnits="userSpaceOnUse" x="0" y="0" width="1440" height="726">
<rect width="1440" height="726" fill="#D9D9D9"/>
</mask>
<g mask="url(#mask0_460_303)">
<path fill-rule="evenodd" clip-rule="evenodd" d="M710.348 -376.808C999.042 -380.764 1292.32 -323.896 1475.91 -176.868C1662.7 -27.2785 1744.54 185.028 1637.17 365.426C1541.42 526.29 1244.35 560.324 1000.01 622.67C792.384 675.649 578.676 744.185 372.997 687.995C155.581 628.599 29.203 487.266 -39.2758 338.746C-115.914 172.53 -166.073 -13.4944 -16.3431 -156.419C143.125 -308.64 429.918 -372.965 710.348 -376.808Z" fill="#F1F5F9"/>
<path fill-rule="evenodd" clip-rule="evenodd" d="M602.431 -204.851C825.936 -207.915 1052.99 -163.876 1195.12 -50.0178C1339.74 65.8248 1403.1 230.235 1319.97 369.936C1245.84 494.509 1015.85 520.865 826.686 569.146C665.942 610.173 500.491 663.247 341.256 619.734C172.933 573.737 75.0927 464.289 22.0768 349.275C-37.2562 220.557 -76.0888 76.4993 39.8311 -34.1818C163.291 -152.062 385.323 -201.875 602.431 -204.851Z" stroke="#F9F400"/>
<path fill-rule="evenodd" clip-rule="evenodd" d="M884.75 625.091C1063.68 590.603 1255.99 541.452 1346.44 445.736C1433.2 353.927 1287.39 236.226 1345.81 137.205C1387.6 66.3666 1547.13 45.3878 1619.3 -16.7425C1747.66 -127.25 2010.26 -240.983 1930.05 -365.768C1856.53 -480.157 1542.61 -464.123 1331.6 -464.348C1169.65 -464.521 1033.17 -404.353 884.75 -366.883C790.622 -343.12 720.491 -285.108 617.799 -284.148C358.855 -281.728 95.1005 -425.702 -135.334 -357.349C-318.592 -302.99 -314.8 -134.487 -283.685 -16.7425C-253.727 96.6222 -45.4867 162.604 30.0876 268.63C121.684 397.134 8.11879 584.813 203.052 666.115C391.563 744.739 664.253 667.59 884.75 625.091Z" stroke="#BC1328"/>
</g>
</svg>
