<svg width="368" height="215" viewBox="0 0 368 215" fill="none" xmlns="http://www.w3.org/2000/svg">
<path fill-rule="evenodd" clip-rule="evenodd" d="M173.851 14.6958C144.68 21.0013 113.328 29.9878 98.5821 47.4877C84.4376 64.2735 108.21 85.7931 98.6858 103.897C91.8724 116.849 65.8649 120.684 54.0992 132.044C33.1723 152.248 -9.63859 173.042 3.43732 195.857C15.4238 216.771 66.6014 213.84 101.003 213.881C127.405 213.912 149.654 202.912 173.851 196.061C189.197 191.716 200.63 181.11 217.372 180.934C259.588 180.492 302.587 206.815 340.155 194.318C370.031 184.379 369.413 153.571 364.34 132.044C359.456 111.317 325.507 99.2535 313.186 79.8686C298.253 56.3739 316.768 22.06 284.988 7.19523C254.255 -7.17981 209.799 6.92562 173.851 14.6958Z" stroke="#BC1328"/>
</svg>
